<?xml version="1.0" encoding="UTF-8" standalone="no"?>
<!DOCTYPE svg PUBLIC "-//W3C//DTD SVG 1.1//EN" "http://www.w3.org/Graphics/SVG/1.1/DTD/svg11.dtd">
<svg version="1.1" xmlns="http://www.w3.org/2000/svg" xmlns:xlink="http://www.w3.org/1999/xlink" preserveAspectRatio="xMidYMid meet" viewBox="171.27400000000006 57.53492318467538 338.0481906664792 520.2922515870536" width="334.05" height="516.29"><defs><path d="M326.49 65.19L326.78 65.22L327.08 65.25L327.37 65.29L327.66 65.33L327.95 65.39L328.23 65.45L328.52 65.52L328.8 65.6L329.08 65.68L329.36 65.77L329.63 65.87L329.9 65.98L330.17 66.09L330.43 66.22L330.69 66.34L330.95 66.48L331.21 66.62L331.46 66.77L331.7 66.93L331.94 67.09L332.18 67.26L332.41 67.44L332.64 67.62L332.87 67.81L333.09 68.01L333.3 68.21L333.51 68.42L333.71 68.63L333.91 68.86L334.1 69.08L334.29 69.32L334.47 69.55L334.64 69.8L334.81 70.05L504.74 367.76L504.96 368.14L505.17 368.53L505.36 368.91L505.53 369.31L505.68 369.71L505.82 370.11L505.94 370.51L506.04 370.92L506.13 371.33L506.2 371.74L506.26 372.15L506.29 372.56L506.32 372.97L506.32 373.39L506.31 373.8L506.29 374.21L506.25 374.61L506.19 375.02L506.12 375.42L506.03 375.82L505.93 376.22L505.81 376.61L505.68 377L505.53 377.38L505.37 377.76L505.19 378.13L505 378.5L504.79 378.85L504.57 379.2L504.34 379.55L504.09 379.88L503.83 380.21L503.55 380.52L503.26 380.83L502.96 381.12L502.64 381.41L502.31 381.68L501.97 381.95L501.61 382.2L501.24 382.43L501.11 382.51L500.99 382.59L500.86 382.66L500.73 382.73L500.6 382.8L500.47 382.87L500.34 382.93L500.2 383L500.07 383.06L499.94 383.12L499.8 383.18L499.67 383.23L499.53 383.29L499.39 383.34L499.26 383.39L499.12 383.44L498.98 383.48L498.84 383.53L498.7 383.57L498.56 383.61L498.42 383.65L498.27 383.69L498.13 383.72L497.99 383.76L497.85 383.79L497.7 383.82L497.56 383.84L497.41 383.87L497.27 383.89L497.12 383.91L496.98 383.93L496.83 383.95L496.69 383.96L496.54 383.98L496.39 383.99L496.25 384L496.1 384.01L495.95 384.01L495.8 384.01L495.66 384.02L358.01 384.02L376.58 563.28L376.6 563.72L376.61 564.16L376.6 564.59L376.57 565.03L376.52 565.45L376.46 565.87L376.38 566.29L376.29 566.7L376.18 567.11L376.05 567.51L375.91 567.9L375.76 568.29L375.59 568.67L375.4 569.04L375.21 569.4L374.99 569.76L374.77 570.1L374.53 570.44L374.28 570.77L374.02 571.08L373.75 571.39L373.46 571.69L373.16 571.97L372.85 572.25L372.54 572.51L372.21 572.76L371.87 573L371.52 573.23L371.16 573.44L370.79 573.64L370.42 573.82L370.03 573.99L369.64 574.15L369.24 574.29L368.83 574.41L368.42 574.52L368 574.62L367.57 574.69L367.13 574.75L366.69 574.8L366.4 574.81L366.1 574.82L365.81 574.83L365.51 574.82L365.22 574.81L364.93 574.79L364.64 574.76L364.35 574.72L364.06 574.67L363.78 574.62L363.5 574.56L363.22 574.49L362.94 574.42L362.66 574.33L362.39 574.24L362.12 574.15L361.85 574.04L361.59 573.93L361.32 573.81L361.07 573.69L360.81 573.56L360.56 573.42L360.31 573.27L360.07 573.12L359.83 572.96L359.59 572.8L359.36 572.62L359.14 572.45L358.91 572.26L358.7 572.07L358.48 571.88L358.28 571.67L358.07 571.46L357.88 571.25L357.68 571.03L357.5 570.8L357.32 570.57L357.14 570.33L356.98 570.09L356.81 569.84L189.69 272.16L189.55 271.91L189.41 271.66L189.28 271.41L189.16 271.15L189.04 270.89L188.93 270.63L188.83 270.37L188.74 270.1L188.65 269.83L188.57 269.56L188.5 269.29L188.43 269.02L188.38 268.75L188.33 268.47L188.28 268.2L188.25 267.92L188.22 267.64L188.2 267.37L188.18 267.09L188.18 266.81L188.18 266.53L188.18 266.25L188.2 265.98L188.22 265.7L188.25 265.42L188.29 265.14L188.33 264.87L188.38 264.59L188.44 264.32L188.51 264.05L188.58 263.78L188.66 263.51L188.75 263.24L188.84 262.97L188.94 262.71L189.05 262.45L189.17 262.19L189.29 261.93L189.42 261.68L189.56 261.42L189.71 261.17L189.86 260.93L190.02 260.69L190.18 260.46L190.35 260.23L190.52 260.01L190.7 259.79L190.89 259.58L191.08 259.37L191.27 259.17L191.47 258.97L191.68 258.78L191.89 258.6L192.1 258.42L192.32 258.24L192.54 258.08L192.77 257.91L193 257.76L193.23 257.61L193.47 257.47L193.71 257.33L193.96 257.2L194.21 257.07L194.46 256.96L194.72 256.84L194.98 256.74L195.24 256.64L195.5 256.55L195.77 256.47L196.04 256.39L196.31 256.32L196.58 256.26L196.86 256.2L197.14 256.15L197.42 256.11L197.7 256.08L197.98 256.05L198.27 256.03L198.55 256.02L198.84 256.02L338.58 256.02L315.15 77.02L315.11 76.58L315.09 76.14L315.09 75.71L315.11 75.28L315.14 74.85L315.19 74.42L315.26 74L315.34 73.59L315.44 73.18L315.55 72.78L315.68 72.38L315.83 71.99L315.98 71.61L316.16 71.23L316.34 70.86L316.55 70.5L316.76 70.15L316.99 69.81L317.23 69.47L317.48 69.15L317.75 68.83L318.02 68.53L318.31 68.23L318.61 67.95L318.92 67.68L319.25 67.42L319.58 67.17L319.92 66.94L320.27 66.71L320.63 66.51L321 66.31L321.38 66.13L321.77 65.96L322.17 65.81L322.57 65.67L322.98 65.55L323.4 65.45L323.83 65.36L324.26 65.29L324.7 65.23L325 65.2L325.3 65.19L325.6 65.17L325.9 65.17L326.19 65.18L326.49 65.19ZM310.59 58.56L310.88 58.58L311.18 58.61L311.47 58.65L311.76 58.69L312.05 58.75L312.33 58.81L312.62 58.88L312.9 58.96L313.18 59.04L313.45 59.13L313.73 59.23L314 59.34L314.27 59.46L314.53 59.58L314.79 59.71L315.05 59.84L315.3 59.99L315.55 60.14L315.8 60.29L316.04 60.46L316.28 60.63L316.51 60.8L316.74 60.99L316.96 61.17L317.18 61.37L317.4 61.57L317.61 61.78L317.81 62L318.01 62.22L318.2 62.44L318.39 62.68L318.53 62.87L318.24 62.91L317.81 62.98L317.38 63.07L316.97 63.18L316.55 63.3L316.15 63.43L315.75 63.59L315.37 63.75L314.99 63.93L314.62 64.13L314.26 64.34L313.9 64.56L313.56 64.8L313.23 65.04L312.91 65.3L312.6 65.58L312.3 65.86L312.01 66.15L311.73 66.46L311.47 66.77L311.21 67.1L310.97 67.43L310.74 67.78L310.53 68.13L310.33 68.49L310.14 68.86L309.97 69.23L309.81 69.62L309.66 70.01L309.53 70.4L309.42 70.81L309.32 71.22L309.24 71.63L309.17 72.05L309.12 72.47L309.09 72.9L309.07 73.33L309.08 73.77L309.09 74.2L309.13 74.64L332.56 253.64L192.83 253.64L192.54 253.64L192.25 253.65L191.97 253.67L191.68 253.7L191.4 253.73L191.12 253.78L190.84 253.82L190.57 253.88L190.29 253.94L190.02 254.01L189.75 254.09L189.48 254.18L189.22 254.27L188.96 254.36L188.7 254.47L188.44 254.58L188.19 254.7L187.94 254.82L187.7 254.95L187.45 255.09L187.22 255.23L186.98 255.38L186.75 255.54L186.52 255.7L186.3 255.87L186.08 256.04L185.87 256.22L185.66 256.41L185.45 256.6L185.25 256.79L185.06 256.99L184.87 257.2L184.68 257.41L184.5 257.63L184.33 257.86L184.16 258.08L184 258.32L183.84 258.56L183.69 258.8L183.55 259.05L183.41 259.3L183.28 259.55L183.15 259.81L183.04 260.07L182.93 260.33L182.82 260.6L182.73 260.86L182.64 261.13L182.56 261.4L182.49 261.67L182.42 261.94L182.36 262.22L182.31 262.49L182.27 262.77L182.23 263.04L182.2 263.32L182.18 263.6L182.17 263.88L182.16 264.16L182.16 264.43L182.17 264.71L182.18 264.99L182.2 265.27L182.23 265.54L182.27 265.82L182.31 266.1L182.36 266.37L182.42 266.64L182.48 266.92L182.55 267.19L182.63 267.46L182.72 267.72L182.81 267.99L182.92 268.25L183.02 268.52L183.14 268.77L183.26 269.03L183.39 269.29L183.53 269.54L183.67 269.79L350.8 567.47L350.96 567.71L351.13 567.96L351.24 568.11L351.23 568.12L350.79 568.16L350.5 568.18L350.2 568.19L349.9 568.19L349.61 568.18L349.32 568.17L349.03 568.15L348.74 568.12L348.45 568.08L348.16 568.04L347.88 567.98L347.59 567.92L347.31 567.85L347.04 567.78L346.76 567.7L346.49 567.61L346.22 567.51L345.95 567.41L345.68 567.29L345.42 567.18L345.16 567.05L344.91 566.92L344.66 566.78L344.41 566.63L344.17 566.48L343.93 566.32L343.69 566.16L343.46 565.99L343.23 565.81L343.01 565.62L342.79 565.43L342.58 565.24L342.37 565.03L342.17 564.83L341.97 564.61L341.78 564.39L341.6 564.16L341.42 563.93L341.24 563.7L341.07 563.45L340.91 563.2L173.79 265.52L173.64 265.28L173.51 265.02L173.38 264.77L173.25 264.51L173.14 264.25L173.03 263.99L172.93 263.73L172.84 263.46L172.75 263.19L172.67 262.93L172.6 262.65L172.53 262.38L172.47 262.11L172.42 261.83L172.38 261.56L172.35 261.28L172.32 261.01L172.3 260.73L172.28 260.45L172.27 260.17L172.27 259.89L172.28 259.62L172.3 259.34L172.32 259.06L172.35 258.78L172.38 258.51L172.43 258.23L172.48 257.96L172.54 257.68L172.6 257.41L172.68 257.14L172.76 256.87L172.84 256.6L172.94 256.33L173.04 256.07L173.15 255.81L173.27 255.55L173.39 255.29L173.52 255.04L173.66 254.79L173.81 254.54L173.96 254.29L174.11 254.05L174.28 253.82L174.44 253.59L174.62 253.37L174.8 253.15L174.98 252.94L175.17 252.73L175.37 252.53L175.57 252.33L175.77 252.14L175.98 251.96L176.2 251.78L176.42 251.61L176.64 251.44L176.87 251.28L177.1 251.12L177.33 250.97L177.57 250.83L177.81 250.69L178.06 250.56L178.31 250.44L178.56 250.32L178.82 250.21L179.07 250.1L179.34 250L179.6 249.91L179.87 249.83L180.14 249.75L180.41 249.68L180.68 249.62L180.96 249.56L181.24 249.51L181.52 249.47L181.8 249.44L182.08 249.41L182.37 249.39L182.65 249.38L182.94 249.38L322.67 249.38L299.25 70.38L299.21 69.94L299.19 69.5L299.19 69.07L299.2 68.64L299.24 68.21L299.29 67.79L299.35 67.37L299.44 66.95L299.54 66.54L299.65 66.14L299.78 65.74L299.92 65.35L300.08 64.97L300.26 64.59L300.44 64.23L300.64 63.87L300.86 63.51L301.09 63.17L301.33 62.83L301.58 62.51L301.85 62.2L302.12 61.89L302.41 61.6L302.71 61.31L303.02 61.04L303.34 60.78L303.68 60.53L304.02 60.3L304.37 60.08L304.73 59.87L305.1 59.67L305.48 59.49L305.87 59.32L306.27 59.17L306.67 59.04L307.08 58.91L307.5 58.81L307.93 58.72L308.36 58.65L308.8 58.59L309.1 58.57L309.4 58.55L309.7 58.54L309.99 58.53L310.29 58.54L310.59 58.56Z" id="coDHxbX7w"></path></defs><g><g><use xlink:href="#coDHxbX7w" opacity="1" fill="#000000" fill-opacity="1"></use><g><use xlink:href="#coDHxbX7w" opacity="1" fill-opacity="0" stroke="#000000" stroke-width="1" stroke-opacity="0"></use></g></g></g></svg>